<?xml version="1.0" encoding="UTF-8" standalone="no"?>
<!DOCTYPE svg PUBLIC "-//W3C//DTD SVG 1.1//EN"
 "http://www.w3.org/Graphics/SVG/1.1/DTD/svg11.dtd">
<!-- Generated by graphviz version 2.43.0 (0)
 -->
<!-- Title: G Pages: 1 -->
<svg width="574pt" height="347pt"
 viewBox="0.00 0.00 573.50 347.00" xmlns="http://www.w3.org/2000/svg" xmlns:xlink="http://www.w3.org/1999/xlink">
<g id="graph0" class="graph" transform="scale(1 1) rotate(0) translate(4 343)">
<title>G</title>
<polygon fill="white" stroke="transparent" points="-4,4 -4,-343 569.5,-343 569.5,4 -4,4"/>
<!-- BaseRunner -->
<g id="node1" class="node">
<title>BaseRunner</title>
<text text-anchor="start" x="263.5" y="-16.9" font-family="Helvetica,sans-Serif" font-weight="bold" font-size="12.00">Base Runner</text>
<polygon fill="none" stroke="black" points="254.5,-4 254.5,-35 358.5,-35 358.5,-4 254.5,-4"/>
</g>
<!-- BaseTrainer -->
<g id="node2" class="node">
<title>BaseTrainer</title>
<text text-anchor="start" x="174.5" y="-116.9" font-family="Helvetica,sans-Serif" font-weight="bold" font-size="12.00">Base Trainer</text>
<polygon fill="none" stroke="black" points="165,-104 165,-135 268,-135 268,-104 165,-104"/>
</g>
<!-- BaseTrainer&#45;&gt;BaseRunner -->
<g id="edge1" class="edge">
<title>BaseTrainer&#45;&gt;BaseRunner</title>
<path fill="none" stroke="#333333" d="M261.25,-99.74C261.25,-99.74 261.25,-47.22 261.25,-47.22"/>
<polygon fill="none" stroke="#333333" points="264.05,-47.22 261.25,-39.22 258.45,-47.22 264.05,-47.22"/>
</g>
<!-- BaseSSLTrainer -->
<g id="node3" class="node">
<title>BaseSSLTrainer</title>
<text text-anchor="start" x="17.5" y="-216.9" font-family="Helvetica,sans-Serif" font-weight="bold" font-size="12.00">Base SSL Trainer</text>
<polygon fill="none" stroke="black" points="8,-204 8,-235 141,-235 141,-204 8,-204"/>
</g>
<!-- BaseSSLTrainer&#45;&gt;BaseTrainer -->
<g id="edge2" class="edge">
<title>BaseSSLTrainer&#45;&gt;BaseTrainer</title>
<path fill="none" stroke="#333333" d="M149.17,-219C164.72,-219 176.5,-219 176.5,-219 176.5,-219 176.5,-147.16 176.5,-147.16"/>
<polygon fill="none" stroke="#333333" points="179.3,-147.16 176.5,-139.16 173.7,-147.16 179.3,-147.16"/>
</g>
<!-- BaseMPRunner -->
<g id="node4" class="node">
<title>BaseMPRunner</title>
<text text-anchor="start" x="340.5" y="-116.9" font-family="Helvetica,sans-Serif" font-weight="bold" font-size="12.00">Base MP Runner</text>
<polygon fill="none" stroke="black" points="331.5,-104 331.5,-135 461.5,-135 461.5,-104 331.5,-104"/>
</g>
<!-- BaseMPRunner&#45;&gt;BaseRunner -->
<g id="edge3" class="edge">
<title>BaseMPRunner&#45;&gt;BaseRunner</title>
<path fill="none" stroke="#333333" d="M345,-99.74C345,-99.74 345,-47.22 345,-47.22"/>
<polygon fill="none" stroke="#333333" points="347.8,-47.22 345,-39.22 342.2,-47.22 347.8,-47.22"/>
</g>
<!-- TrainerSP -->
<g id="node5" class="node">
<title>TrainerSP</title>
<text text-anchor="start" x="39.5" y="-316.9" font-family="Helvetica,sans-Serif" font-weight="bold" font-size="12.00">Trainer SP</text>
<polygon fill="none" stroke="black" points="30.5,-304 30.5,-335 118.5,-335 118.5,-304 30.5,-304"/>
</g>
<!-- TrainerSP&#45;&gt;BaseSSLTrainer -->
<g id="edge4" class="edge">
<title>TrainerSP&#45;&gt;BaseSSLTrainer</title>
<path fill="none" stroke="#333333" d="M74.5,-299.74C74.5,-299.74 74.5,-247.22 74.5,-247.22"/>
<polygon fill="none" stroke="#333333" points="77.3,-247.22 74.5,-239.22 71.7,-247.22 77.3,-247.22"/>
</g>
<!-- TrainerMP -->
<g id="node6" class="node">
<title>TrainerMP</title>
<text text-anchor="start" x="275.5" y="-316.9" font-family="Helvetica,sans-Serif" font-weight="bold" font-size="12.00">Trainer MP</text>
<polygon fill="none" stroke="black" points="266,-304 266,-335 357,-335 357,-304 266,-304"/>
</g>
<!-- TrainerMP&#45;&gt;BaseSSLTrainer -->
<g id="edge5" class="edge">
<title>TrainerMP&#45;&gt;BaseSSLTrainer</title>
<path fill="none" stroke="#333333" d="M257.95,-319C206.9,-319 137.75,-319 137.75,-319 137.75,-319 137.75,-247.16 137.75,-247.16"/>
<polygon fill="none" stroke="#333333" points="140.55,-247.16 137.75,-239.16 134.95,-247.16 140.55,-247.16"/>
</g>
<!-- TrainerMP&#45;&gt;BaseMPRunner -->
<g id="edge6" class="edge">
<title>TrainerMP&#45;&gt;BaseMPRunner</title>
<path fill="none" stroke="#333333" d="M351.67,-299.96C351.67,-299.96 351.67,-147.12 351.67,-147.12"/>
<polygon fill="none" stroke="#333333" points="354.47,-147.12 351.67,-139.12 348.87,-147.12 354.47,-147.12"/>
</g>
<!-- TrainerMPSF -->
<g id="node7" class="node">
<title>TrainerMPSF</title>
<text text-anchor="start" x="213.5" y="-216.9" font-family="Helvetica,sans-Serif" font-weight="bold" font-size="12.00">Trainer MP SF</text>
<polygon fill="none" stroke="black" points="204,-204 204,-235 317,-235 317,-204 204,-204"/>
</g>
<!-- TrainerMPSF&#45;&gt;BaseTrainer -->
<g id="edge7" class="edge">
<title>TrainerMPSF&#45;&gt;BaseTrainer</title>
<path fill="none" stroke="#333333" d="M236,-199.74C236,-199.74 236,-147.22 236,-147.22"/>
<polygon fill="none" stroke="#333333" points="238.8,-147.22 236,-139.22 233.2,-147.22 238.8,-147.22"/>
</g>
<!-- TrainerMPSF&#45;&gt;BaseMPRunner -->
<g id="edge8" class="edge">
<title>TrainerMPSF&#45;&gt;BaseMPRunner</title>
<path fill="none" stroke="#333333" d="M325.13,-219C333,-219 338.33,-219 338.33,-219 338.33,-219 338.33,-147.16 338.33,-147.16"/>
<polygon fill="none" stroke="#333333" points="341.13,-147.16 338.33,-139.16 335.53,-147.16 341.13,-147.16"/>
</g>
<!-- Inference -->
<g id="node8" class="node">
<title>Inference</title>
<text text-anchor="start" x="484.5" y="-216.9" font-family="Helvetica,sans-Serif" font-weight="bold" font-size="12.00">Inference</text>
<polygon fill="none" stroke="black" points="475.5,-204 475.5,-235 557.5,-235 557.5,-204 475.5,-204"/>
</g>
<!-- Inference&#45;&gt;BaseMPRunner -->
<g id="edge9" class="edge">
<title>Inference&#45;&gt;BaseMPRunner</title>
<path fill="none" stroke="#333333" d="M517.5,-199.64C517.5,-170.36 517.5,-119 517.5,-119 517.5,-119 477.68,-119 477.68,-119"/>
<polygon fill="none" stroke="#333333" points="477.68,-116.2 469.68,-119 477.68,-121.8 477.68,-116.2"/>
</g>
</g>
</svg>
